<svg xmlns="http://www.w3.org/2000/svg" viewBox="0 0 64 64"><defs><style>.cls-1{fill:#272835;}</style></defs><title>13-Data Management</title><g id="_13-Data_Management" data-name="13-Data Management"><path class="cls-1" d="M62,25H56a24.91,24.91,0,0,0-2.09-5l4.24-4.24a2,2,0,0,0,0-2.83L51.09,5.84a2,2,0,0,0-2.83,0L44,10.08A24.83,24.83,0,0,0,39,8V2a2,2,0,0,0-2-2H27a2,2,0,0,0-2,2V8a24.87,24.87,0,0,0-5,2.09L15.74,5.84a2,2,0,0,0-2.83,0L5.84,12.91a2,2,0,0,0,0,2.83L10.08,20A24.87,24.87,0,0,0,8,25H2a2,2,0,0,0-2,2V37a2,2,0,0,0,2,2H8a24.83,24.83,0,0,0,2.09,5L5.84,48.26a2,2,0,0,0,0,2.83l7.07,7.07a2,2,0,0,0,2.83,0L20,53.92A24.91,24.91,0,0,0,25,56v6a2,2,0,0,0,2,2H37a2,2,0,0,0,2-2V56a24.91,24.91,0,0,0,5-2.09l4.24,4.24a2,2,0,0,0,2.83,0l7.07-7.07a2,2,0,0,0,0-2.83L53.92,44A24.89,24.89,0,0,0,56,39h6a2,2,0,0,0,2-2V27A2,2,0,0,0,62,25Zm0,12H55.24a1,1,0,0,0-1,.75,22.8,22.8,0,0,1-2.46,5.93A1,1,0,0,0,52,44.89l4.78,4.78-7.07,7.07L44.89,52a1,1,0,0,0-1.22-.15,22.85,22.85,0,0,1-5.93,2.46,1,1,0,0,0-.75,1V62H27V55.24a1,1,0,0,0-.75-1,22.85,22.85,0,0,1-5.93-2.46A1,1,0,0,0,19.1,52l-4.78,4.78L7.25,49.68,12,44.89a1,1,0,0,0,.15-1.22,22.88,22.88,0,0,1-2.46-5.93,1,1,0,0,0-1-.75H2V27H8.76a1,1,0,0,0,1-.75,22.88,22.88,0,0,1,2.46-5.93A1,1,0,0,0,12,19.1L7.25,14.32l7.07-7.07L19.1,12a1,1,0,0,0,1.22.15,22.88,22.88,0,0,1,5.93-2.46,1,1,0,0,0,.75-1V2H37V8.76a1,1,0,0,0,.75,1,22.88,22.88,0,0,1,5.93,2.46A1,1,0,0,0,44.89,12l4.78-4.78,7.07,7.07L52,19.1a1,1,0,0,0-.15,1.22,22.85,22.85,0,0,1,2.46,5.93,1,1,0,0,0,1,.75H62Z"/><path class="cls-1" d="M32,13A19,19,0,0,0,13,32h2A17,17,0,0,1,32,15Z"/><path class="cls-1" d="M32,49v2A19,19,0,0,0,51,32H49A17,17,0,0,1,32,49Z"/><rect class="cls-1" x="31" y="5" width="2" height="2"/><rect class="cls-1" x="31" y="57" width="2" height="2"/><rect class="cls-1" x="57" y="31" width="2" height="2"/><rect class="cls-1" x="5" y="31" width="2" height="2"/><path class="cls-1" d="M42,41V24c0-2.75-5.18-4-10-4s-10,1.25-10,4V41c0,2.75,5.18,4,10,4S42,43.75,42,41ZM32,22c5.25,0,8,1.49,8,2s-2.75,2-8,2-8-1.49-8-2S26.75,22,32,22Zm-8,4.52A19,19,0,0,0,32,28a19,19,0,0,0,8-1.48V32c0,.51-2.75,2-8,2s-8-1.49-8-2ZM24,41V34.52A19,19,0,0,0,32,36a19,19,0,0,0,8-1.48V41c0,.51-2.75,2-8,2S24,41.51,24,41Z"/></g></svg>