<?xml version="1.0" encoding="utf-8"?>
<!-- Generator: Adobe Illustrator 16.0.0, SVG Export Plug-In . SVG Version: 6.00 Build 0)  -->
<!DOCTYPE svg PUBLIC "-//W3C//DTD SVG 1.1//EN" "http://www.w3.org/Graphics/SVG/1.1/DTD/svg11.dtd">
<svg version="1.1" id="Layer_1" xmlns="http://www.w3.org/2000/svg" xmlns:xlink="http://www.w3.org/1999/xlink" x="0px" y="0px"
	 width="512px" height="512px" viewBox="0 0 512 512" enable-background="new 0 0 512 512" xml:space="preserve">
<g id="_x31_6._board_x2C__sponge_x2C__school_x2C__university_x2C__college_x2C__learning">
	<g>
		<path fill="#48CFAD" d="M176.002,244c6.641,0,12-5.359,12-12c0-6.641-5.359-12-12-12s-12,5.359-12,12
			C164.003,238.641,169.362,244,176.002,244z M459.994,387.996H52.006v-8V108.004c0-4.398,3.602-8,8-8h391.988c4.398,0,8,3.602,8,8
			v271.992V387.996z"/>
	</g>
	<g>
		<rect x="347.998" y="347.997" fill="#FFCE54" width="79.996" height="39.999"/>
	</g>
	<g opacity="0.5">
		<rect x="347.998" y="347.997" fill="#FFFFFF" width="8" height="31.999"/>
	</g>
	<g opacity="0.2">
		<rect x="419.996" y="347.997" width="7.998" height="31.999"/>
	</g>
	<g>
		<polygon fill="#FFD2A6" points="196.669,403.996 156.339,403.996 100.005,507.992 140.003,507.992 		"/>
	</g>
	<g opacity="0.5">
		<polygon fill="#FFFFFF" points="152.007,411.995 100.005,507.992 108.004,507.992 160.007,411.995 		"/>
	</g>
	<g opacity="0.2">
		<polygon points="184.006,411.995 132.004,507.992 140.003,507.992 192.006,411.995 		"/>
	</g>
	<g>
		<polygon fill="#FFD2A6" points="315.67,403.996 355.998,403.996 412.332,507.992 372.332,507.992 		"/>
	</g>
	<g opacity="0.2">
		<polygon points="359.652,411.995 411.66,507.992 403.66,507.992 351.654,411.995 		"/>
	</g>
	<g opacity="0.5">
		<polygon fill="#FFFFFF" points="327.654,411.995 379.66,507.992 371.66,507.992 319.654,411.995 		"/>
	</g>
	<g>
		<rect x="236" y="4.008" fill="#FFD2A6" width="40" height="79.998"/>
	</g>
	<g>
		<path fill="#3A3847" d="M412.23,367.996c-2.203,0-4.031-1.789-4.031-4c0-2.21,1.75-3.999,3.953-3.999h0.078
			c2.219,0,4,1.789,4,3.999C416.23,366.207,414.449,367.996,412.23,367.996z"/>
	</g>
	<g>
		<path fill="#3A3847" d="M380.23,367.996c-2.203,0-4.031-1.789-4.031-4c0-2.21,1.75-3.999,3.953-3.999h0.078
			c2.219,0,4,1.789,4,3.999C384.23,366.207,382.449,367.996,380.23,367.996z"/>
	</g>
	<g>
		<path fill="#3A3847" d="M396.23,375.996c-2.203,0-4.031-1.789-4.031-4s1.75-4,3.953-4h0.078c2.219,0,4,1.789,4,4
			S398.449,375.996,396.23,375.996z"/>
	</g>
	<g>
		<path fill="#3A3847" d="M364.23,375.996c-2.203,0-4.031-1.789-4.031-4s1.75-4,3.953-4h0.078c2.219,0,4,1.789,4,4
			S366.449,375.996,364.23,375.996z"/>
	</g>
	<g>
		<path fill="#3A3847" d="M427.994,383.996c-2.211,0-4-1.789-4-4v-27.999h-71.996v27.999c0,2.211-1.789,4-4,4s-4-1.789-4-4v-31.999
			c0-2.211,1.789-4,4-4h79.996c2.211,0,4,1.789,4,4v31.999C431.994,382.207,430.205,383.996,427.994,383.996z"/>
	</g>
	<g>
		<path fill="#E6E9ED" d="M188.002,232.001c0,6.64-5.359,12-12,12s-12-5.359-12-12c0-6.641,5.359-12,12-12
			S188.002,225.36,188.002,232.001z"/>
	</g>
	<g>
		<path fill="#CCD1D9" d="M451.994,100.005H60.006c-4.398,0-8,3.602-8,8v271.992v8h-16v-8V100.005c0-8.883,7.121-16,16-16H236h40
			h183.994c8.875,0,16,7.117,16,16v279.991v8h-16v-8V108.004C459.994,103.606,456.393,100.005,451.994,100.005z"/>
	</g>
	<g>
		<g>
			<path fill="#FFFFFF" d="M44.006,100.005c0-8.883,7.121-16,16-16h-8c-8.879,0-16,7.117-16,16v279.991h8V100.005z"/>
		</g>
	</g>
	<g opacity="0.2">
		<g>
			<path d="M467.994,100.005c0-8.883-7.125-16-16-16h8c8.875,0,16,7.117,16,16v279.991h-8V100.005z"/>
		</g>
	</g>
	<g opacity="0.5">
		<g>
			<path fill="#FFFFFF" d="M60.006,108.004c0-4.398,3.602-8,8-8h-8c-4.398,0-8,3.602-8,8v271.992h8V108.004z"/>
		</g>
	</g>
	<g opacity="0.2">
		<g>
			<path d="M451.994,108.004c0-4.398-3.602-8-8-8h8c4.398,0,8,3.602,8,8v271.992h-8V108.004z"/>
		</g>
	</g>
	<g opacity="0.2">
		<polygon points="360.324,411.995 355.998,403.996 315.67,403.996 320.029,411.995 		"/>
	</g>
	<g opacity="0.2">
		<polygon points="192.311,411.995 196.669,403.996 156.339,403.996 152.007,411.995 		"/>
	</g>
	<g opacity="0.2">
		<rect x="236" y="76.005" width="40" height="8"/>
	</g>
	<g>
		<rect x="20.007" y="387.996" fill="#656D78" width="471.985" height="16"/>
	</g>
	<g opacity="0.2">
		<rect x="36.007" y="379.996" width="439.987" height="8"/>
	</g>
	<g opacity="0.3">
		<rect x="20.007" y="387.996" fill="#FFFFFF" width="16" height="16"/>
	</g>
	<g opacity="0.2">
		<rect x="475.994" y="387.996" width="15.998" height="16"/>
	</g>
	<g opacity="0.5">
		<rect x="236" y="4.008" fill="#FFFFFF" width="8" height="71.998"/>
	</g>
	<g opacity="0.2">
		<rect x="268" y="4.008" width="8" height="71.998"/>
	</g>
	<g>
		<g>
			<path fill="#3A3847" d="M475.994,383.996c-2.211,0-4-1.789-4-4V100.005c0-2.211,1.789-4,4-4s4,1.789,4,4v279.991
				C479.994,382.207,478.205,383.996,475.994,383.996z"/>
		</g>
		<g>
			<path fill="#3A3847" d="M36.007,383.996c-2.211,0-4-1.789-4-4V100.005c0-2.211,1.789-4,4-4c2.21,0,4,1.789,4,4v279.991
				C40.006,382.207,38.217,383.996,36.007,383.996z"/>
		</g>
		<g>
			<path fill="#3A3847" d="M236,80.724c-2.211,0-4-1.789-4-4V4.008c0-2.211,1.789-4,4-4s4,1.789,4,4v72.716
				C240,78.935,238.211,80.724,236,80.724z"/>
		</g>
		<g>
			<path fill="#3A3847" d="M276,80.724c-2.211,0-4-1.789-4-4V4.008c0-2.211,1.789-4,4-4s4,1.789,4,4v72.716
				C280,78.935,278.211,80.724,276,80.724z"/>
		</g>
		<g>
			<path fill="#3A3847" d="M276,8.008h-40c-2.211,0-4-1.789-4-4s1.789-4,4-4h40c2.211,0,4,1.789,4,4S278.211,8.008,276,8.008z"/>
		</g>
		<g>
			<path fill="#3A3847" d="M140.003,511.992h-39.999c-2.211,0-4-1.789-4-4s1.789-4,4-4h39.999c2.211,0,4,1.789,4,4
				S142.214,511.992,140.003,511.992z"/>
		</g>
		<g>
			<path fill="#3A3847" d="M100.001,511.992c-0.648,0-1.305-0.156-1.914-0.492c-1.938-1.055-2.652-3.484-1.594-5.422l52.397-95.997
				c1.059-1.945,3.48-2.664,5.43-1.594c1.937,1.055,2.652,3.484,1.594,5.422l-52.397,95.997
				C102.79,511.242,101.418,511.992,100.001,511.992z"/>
		</g>
		<g>
			<path fill="#3A3847" d="M124,511.992c-0.648,0-1.301-0.156-1.91-0.484c-1.941-1.062-2.656-3.492-1.598-5.43l26.159-47.998
				c1.055-1.938,3.48-2.656,5.426-1.602c1.941,1.062,2.656,3.492,1.598,5.43l-26.16,47.998
				C126.789,511.234,125.418,511.992,124,511.992z"/>
		</g>
		<g>
			<path fill="#3A3847" d="M140,511.992c-0.645,0-1.301-0.156-1.91-0.484c-1.941-1.062-2.656-3.492-1.598-5.43l52.397-95.997
				c1.055-1.945,3.492-2.664,5.43-1.594c1.937,1.055,2.652,3.484,1.594,5.422l-52.397,95.997
				C142.789,511.234,141.417,511.992,140,511.992z"/>
		</g>
		<g>
			<path fill="#3A3847" d="M411.996,511.992h-40c-2.211,0-4-1.789-4-4s1.789-4,4-4h40c2.211,0,4,1.789,4,4
				S414.207,511.992,411.996,511.992z"/>
		</g>
		<g>
			<path fill="#3A3847" d="M411.996,511.992c-1.414,0-2.781-0.758-3.516-2.086l-52.312-95.997c-1.061-1.938-0.342-4.367,1.594-5.43
				c1.945-1.047,4.375-0.328,5.422,1.602l52.328,95.997c1.055,1.938,0.344,4.367-1.602,5.43
				C413.301,511.836,412.645,511.992,411.996,511.992z"/>
		</g>
		<g>
			<path fill="#3A3847" d="M371.996,511.992c-1.414,0-2.781-0.75-3.516-2.086l-52.389-95.997c-1.062-1.938-0.344-4.367,1.594-5.422
				c1.938-1.07,4.367-0.352,5.422,1.594l52.404,95.997c1.055,1.938,0.344,4.367-1.602,5.43
				C373.301,511.836,372.645,511.992,371.996,511.992z"/>
		</g>
		<g>
			<path fill="#3A3847" d="M369.84,463.994c-1.422,0-2.789-0.75-3.516-2.086l-21.842-39.999c-1.055-1.938-0.344-4.367,1.594-5.422
				c1.938-1.07,4.375-0.352,5.438,1.594l21.834,39.999c1.055,1.938,0.344,4.367-1.594,5.422
				C371.145,463.838,370.488,463.994,369.84,463.994z"/>
		</g>
		<g>
			<path fill="#3A3847" d="M354.561,479.993H157.444c-2.21,0-4-1.789-4-4s1.789-4,4-4h197.116c2.201,0,3.998,1.789,3.998,4
				S356.762,479.993,354.561,479.993z"/>
		</g>
		<g>
			<path fill="#3A3847" d="M491.992,407.995H20.007c-2.211,0-4-1.789-4-3.999v-16c0-2.211,1.789-4,4-4h471.985c2.211,0,4,1.789,4,4
				v16C495.992,406.206,494.203,407.995,491.992,407.995z M24.007,399.996h463.985v-8H24.007V399.996z"/>
		</g>
		<g>
			<path fill="#3A3847" d="M36.007,104.005c-2.211,0-4-1.789-4-4c0-11.031,8.972-20,20-20c2.211,0,4,1.789,4,4c0,2.21-1.789,4-4,4
				c-6.617,0-12,5.383-12,12C40.006,102.216,38.217,104.005,36.007,104.005z"/>
		</g>
		<g>
			<path fill="#3A3847" d="M475.994,104.005c-2.211,0-4-1.789-4-4c0-6.617-5.383-12-12-12c-2.211,0-4-1.789-4-4c0-2.211,1.789-4,4-4
				c11.031,0,20,8.968,20,20C479.994,102.216,478.205,104.005,475.994,104.005z"/>
		</g>
		<g>
			<path fill="#3A3847" d="M459.994,88.005H52.006c-2.211,0-4-1.789-4-4c0-2.211,1.789-4,4-4h407.988c2.211,0,4,1.789,4,4
				C463.994,86.216,462.205,88.005,459.994,88.005z"/>
		</g>
		<g>
			<path fill="#3A3847" d="M52.006,383.996c-2.211,0-4-1.789-4-4V108.004c0-2.21,1.789-4,4-4s4,1.789,4,4v271.992
				C56.006,382.207,54.217,383.996,52.006,383.996z"/>
		</g>
		<g>
			<path fill="#3A3847" d="M52.006,112.004c-2.211,0-4-1.789-4-4c0-6.617,5.383-12,12-12c2.211,0,4,1.789,4,4s-1.789,4-4,4
				c-2.207,0-4,1.797-4,4C56.006,110.215,54.217,112.004,52.006,112.004z"/>
		</g>
		<g>
			<path fill="#3A3847" d="M459.994,112.004c-2.211,0-4-1.789-4-4c0-2.203-1.797-4-4-4c-2.211,0-4-1.789-4-4s1.789-4,4-4
				c6.617,0,12,5.383,12,12C463.994,110.215,462.205,112.004,459.994,112.004z"/>
		</g>
		<g>
			<path fill="#3A3847" d="M451.994,104.005H60.006c-2.21,0-4-1.789-4-4s1.789-4,4-4h391.988c2.211,0,4,1.789,4,4
				S454.205,104.005,451.994,104.005z"/>
		</g>
		<g>
			<path fill="#3A3847" d="M459.994,383.996c-2.211,0-4-1.789-4-4V108.004c0-2.21,1.789-4,4-4s4,1.789,4,4v271.992
				C463.994,382.207,462.205,383.996,459.994,383.996z"/>
		</g>
		<g>
			<path fill="#3A3847" d="M172.002,375.996H92.005c-2.21,0-4-1.789-4-4s1.789-4,4-4h79.998c2.211,0,4,1.789,4,4
				S174.213,375.996,172.002,375.996z"/>
		</g>
		<g>
			<path fill="#3A3847" d="M256,80.005c-2.211,0-4-1.789-4-4V44.006c0-2.21,1.789-4,4-4s4,1.789,4,4v31.999
				C260,78.216,258.211,80.005,256,80.005z"/>
		</g>
		<g>
			<path fill="#3A3847" d="M150.164,463.994c-0.504,0-1.016-0.094-1.508-0.297c-2.047-0.828-3.031-3.164-2.195-5.211
				c2.375-5.852,10.789-15.523,25.448-10.258c2.082,0.742,3.164,3.039,2.418,5.117s-3.039,3.133-5.113,2.414
				c-11.05-3.977-14.937,4.734-15.347,5.742C153.238,463.057,151.742,463.994,150.164,463.994z"/>
		</g>
		<g>
			<path fill="#3A3847" d="M176.002,248c-8.824,0-16-7.179-16-15.999c0-8.82,7.175-16,16-16s16,7.18,16,16
				C192.002,240.821,184.827,248,176.002,248z M176.002,224.001c-4.41,0-8,3.586-8,8c0,4.414,3.59,8,8,8s8-3.586,8-8
				C184.002,227.587,180.413,224.001,176.002,224.001z"/>
		</g>
		<g>
			<path fill="#3A3847" d="M176.002,264h-3.762c-2.211,0-4-1.789-4-4s1.789-4,4-4h3.762C218.431,256,248,243.352,248,232.001
				c0-11.352-29.569-24-71.998-24h-4c-2.211,0-4-1.789-4-4c0-2.21,1.789-4,4-4h4c38.78,0,79.998,11.218,79.998,31.999
				C256,252.781,214.783,264,176.002,264z"/>
		</g>
		<g>
			<path fill="#3A3847" d="M123.926,256.398c-0.434,0-0.879-0.07-1.312-0.219c-17.16-5.969-26.609-14.554-26.609-24.179
				c0-9.734,9.484-18.32,26.71-24.187c2.089-0.688,4.363,0.414,5.074,2.5c0.715,2.093-0.406,4.367-2.496,5.078
				c-13.332,4.539-21.289,10.75-21.289,16.609c0,5.789,7.938,12,21.234,16.616c2.086,0.727,3.191,3.008,2.465,5.094
				C127.129,255.367,125.582,256.398,123.926,256.398z"/>
		</g>
		<g>
			<path fill="#3A3847" d="M201.357,248c-0.672,0-1.352-0.172-1.973-0.523c-1.922-1.094-2.594-3.531-1.5-5.453
				c4.418-7.765,8.211-15.664,11.273-23.484c0.805-2.062,3.137-3.078,5.184-2.266c2.055,0.805,3.07,3.125,2.262,5.188
				c-3.199,8.172-7.16,16.421-11.766,24.515C204.099,247.273,202.748,248,201.357,248z"/>
		</g>
		<g>
			<path fill="#3A3847" d="M143.914,303.334c-3.305,0-5.91-0.875-7.906-2.023c-4.691-2.726-10.042-9.366-8.957-25.576
				c1.223-16.742,8.968-38.5,21.253-59.733c6.164-10.703,13.312-20.866,20.667-29.405c18.445-21.272,36.015-30.218,47.019-23.905
				c8.14,4.75,10.878,16.273,7.953,33.343c-0.371,2.18-2.395,3.664-4.617,3.273c-2.176-0.375-3.641-2.445-3.266-4.617
				c2.246-13.117,0.762-22.257-4.074-25.077c-5.887-3.367-19.601,2.195-36.96,22.21c-7.027,8.156-13.875,17.906-19.796,28.179
				c-11.531,19.929-19.078,40.968-20.199,56.287c-0.633,9.43,1.137,15.867,4.98,18.094c4.434,2.547,12.277-0.094,21.554-7.234
				c1.746-1.336,4.257-1.016,5.609,0.734c1.344,1.75,1.02,4.258-0.734,5.609C156.745,300.951,149.375,303.334,143.914,303.334z"/>
		</g>
		<g>
			<path fill="#3A3847" d="M139.125,224.001c-1.598,0-3.105-0.961-3.723-2.539c-11.515-29.319-11.292-51.834,0.586-58.756
				c5.324-3.07,14.918-4.18,30.468,7.898c1.746,1.352,2.062,3.867,0.707,5.609c-1.352,1.75-3.859,2.078-5.613,0.703
				c-9.265-7.195-17.121-9.875-21.55-7.289c-6.402,3.726-8.257,20.64,2.848,48.912c0.809,2.055-0.203,4.375-2.262,5.188
				C140.105,223.915,139.613,224.001,139.125,224.001z"/>
		</g>
		<g>
			<path fill="#3A3847" d="M208.009,303.365c-18.109,0-42.991-26.397-59.709-55.365c-0.395-0.625-0.859-1.461-1.234-2.211
				c-0.988-1.976-0.188-4.375,1.789-5.367c1.969-1,4.379-0.18,5.367,1.789c0.266,0.531,0.598,1.133,0.93,1.664
				c21.261,36.827,47.025,56.123,56.865,50.491c3.82-2.211,5.59-8.648,4.953-18.102c-0.148-2.202,1.52-4.108,3.722-4.257
				c2.32-0.164,4.113,1.523,4.262,3.727c1.086,16.21-4.266,22.851-8.945,25.568C213.548,302.709,210.865,303.365,208.009,303.365z"
				/>
		</g>
		<g>
			<path fill="#3A3847" d="M403.996,192.002H284c-2.211,0-4-1.789-4-4s1.789-4,4-4h119.996c2.211,0,4,1.789,4,4
				S406.207,192.002,403.996,192.002z"/>
		</g>
		<g>
			<path fill="#3A3847" d="M403.996,224.001H284c-2.211,0-4-1.789-4-4s1.789-4,4-4h119.996c2.211,0,4,1.789,4,4
				S406.207,224.001,403.996,224.001z"/>
		</g>
		<g>
			<path fill="#3A3847" d="M403.996,256H284c-2.211,0-4-1.789-4-4s1.789-4,4-4h119.996c2.211,0,4,1.789,4,4S406.207,256,403.996,256
				z"/>
		</g>
		<g>
			<path fill="#3A3847" d="M339.998,287.999H284c-2.211,0-4-1.789-4-4s1.789-4,4-4h55.998c2.211,0,4,1.789,4,4
				S342.209,287.999,339.998,287.999z"/>
		</g>
	</g>
</g>
</svg>
