<?xml version="1.0" encoding="UTF-8"?>
<!DOCTYPE svg PUBLIC "-//W3C//DTD SVG 1.1//EN" "http://www.w3.org/Graphics/SVG/1.1/DTD/svg11.dtd">
<!-- Creator: CorelDRAW -->
<svg xmlns="http://www.w3.org/2000/svg" xml:space="preserve" width="6.82666in" height="6.82666in" style="shape-rendering:geometricPrecision; text-rendering:geometricPrecision; image-rendering:optimizeQuality; fill-rule:evenodd; clip-rule:evenodd"
viewBox="0 0 6.82666 6.82666"
 xmlns:xlink="http://www.w3.org/1999/xlink">
 <defs>
  <style type="text/css">
   <![CDATA[
    .fil0 {fill:#42A5F5}
    .fil1 {fill:#FFFFFE}
   ]]>
  </style>
 </defs>
 <g id="Layer_x0020_1">
  <metadata id="CorelCorpID_0Corel-Layer"/>
  <circle class="fil0" cx="3.41333" cy="3.41333" r="3.41333"/>
  <g id="_461958104">
   <path id="_461958728" class="fil1" d="M1.54666 1.99922l0.26537 0 0 2.78311 1.44411 0c0.0173307,0.0158543 0.0328268,0.0337283 0.0450276,0.0538307l0.0185512 0.030563 0.0875906 0.142071 0.038122 -0.062878 0.0129055 -0.0212795 0.0340787 -0.0562087 3.93701e-006 0 0.0195236 -0.0322008c0.0122047,-0.0201299 0.0277126,-0.0380276 0.0450591,-0.0538976l1.45763 0 0 -2.78311 0.26537 0 0 3.11084 -3.73334 0 0 -3.11084z"/>
   <path id="_461958464" class="fil1" d="M4.93685 1.7166l-1.17207 0c-0.0877047,0.0226772 -0.245571,0.0788661 -0.31935,0.200583l0 2.87872c0.021752,-0.035874 0.0508071,-0.0660472 0.0832165,-0.0913543l1.4082 0 0 -2.98795zm-2.61306 0.489457c-0.000161417,-1.9685e-005 -0.0564567,-0.00826772 -0.0564567,0.0358228l0 0.240929 0 0.0231457 -0.0205079 0.0110315 -0.0305472 0.0164409 0.0305472 0.0164409 0.0205079 0.0110394 0 0.0231417 0 0.240929c0,0.0440906 0.0562953,0.0358425 0.0564567,0.0358228l0.0106339 0.0768661c-0.000413386,5.90551e-005 -0.14487,0.021437 -0.14487,-0.112689l0 -0.217787 -0.0735472 -0.0395827 -0.0635079 -0.0341811 0.0635079 -0.0341772 0.0735472 -0.0395827 0 -0.217787c0,-0.134134 0.144457,-0.112748 0.14487,-0.112689l-0.0106339 0.0768661zm0.627067 -0.0768661c0.000413386,-5.90551e-005 0.144866,-0.0214409 0.144866,0.112689l0 0.217787 0.0735512 0.0395827 0.0635118 0.0341772 -0.0635118 0.0341811 -0.0735512 0.0395827 0 0.217787c0,0.134122 -0.144453,0.112748 -0.144866,0.112689l0.0106339 -0.0768661c0.000161417,1.9685e-005 0.0564528,0.00826772 0.0564528,-0.0358228l0 -0.240929 0 -0.0231417 0.0205079 -0.0110394 0.0305512 -0.0164409 -0.0305512 -0.0164409 -0.0205079 -0.0110315 0 -0.0231457 0 -0.240929c0,-0.0440906 -0.0562913,-0.0358425 -0.0564528,-0.0358228l-0.0106339 -0.0768661zm-0.0640551 0.231929l-0.292252 0 0 0.383512 -0.0744331 0.0156457 -0.0925827 -0.210189 -0.0290551 0 0 -0.0777795 0.0543622 0 0.0253071 0 0.0102362 0.0232441 0.0283858 0.0644449 0 -0.237768 0 -0.0388898 0.0388898 0 0.331142 0 0 0.0777795zm-0.231976 0.0825709l0.104559 0 0.0365787 0.0640669 0.0424134 -0.0640669 0.097248 0 -0.0784055 0.109512 0.0840197 0.120374 -0.102862 0 -0.0424134 -0.0740433 -0.0500276 0.0740433 -0.0954685 0 0.0835748 -0.120374 -0.0792165 -0.109512zm-0.46726 0.751118l0.828555 0 0 0.0777795 -0.828555 0 0 -0.0777795zm0 0.443181l0.828555 0 0 0.0777795 -0.828555 0 0 -0.0777795zm0 0.443185l0.828555 0 0 0.0777795 -0.828555 0 0 -0.0777795zm2.41217 -0.443776l-0.516031 0 0 0.668972 -0.074437 0.0156457 -0.162067 -0.367945 -0.0657913 0 0 -0.0777795 0.0910945 0 0.0253071 0 0.0102402 0.0232441 0.097874 0.222201 0 -0.523228 0 -0.0388898 0.0388898 0 0.554921 0 0 0.0777795zm-0.406323 0.206969l0.136728 0 0.0478346 0.0837795 0.0554646 -0.0837795 0.127165 0 -0.102524 0.143205 0.10987 0.157409 -0.134512 0 -0.0554646 -0.0968228 -0.0654173 0.0968228 -0.124846 0 0.109287 -0.157409 -0.103587 -0.143205zm-0.457917 -0.772598l0.828559 0 0 0.0777795 -0.828559 0 0 -0.0777795zm0 -0.443181l0.828559 0 0 0.0777795 -0.828559 0 0 -0.0777795zm0 -0.443181l0.828559 0 0 0.0777795 -0.828559 0 0 -0.0777795zm-0.367839 -0.26837c-0.0738189,-0.121638 -0.231673,-0.177764 -0.319354,-0.200437l-1.1585 0 0 2.98795 1.39468 0c0.0323819,0.0252795 0.0614252,0.0554252 0.0831693,0.091252l0 -2.87876z"/>
  </g>
 </g>
</svg>
