<svg id="_1-App" data-name="1-App" xmlns="http://www.w3.org/2000/svg" viewBox="0 0 64 64"><defs><style>.cls-1{fill:#979faf;}.cls-2{fill:#adb2c7;}.cls-3{fill:#8dd5f6;}.cls-4{fill:#dfe1ea;}.cls-5{fill:#aedff7;}.cls-6{fill:#f6fafd;}.cls-7{fill:#7e8596;}.cls-8{fill:#0096cf;}.cls-13,.cls-9{fill:none;stroke-linejoin:round;stroke-width:2px;}.cls-9{stroke:#000;}.cls-10{fill:#fff;}.cls-11{fill:#73c6b2;}.cls-12{fill:#e9edf5;}.cls-13{stroke:#fff;}</style></defs><title>1-App</title><g id="_Group_" data-name="&lt;Group&gt;"><rect class="cls-1" x="19" y="59" width="26" height="3"/><polygon class="cls-2" points="40 50 45 59 19 59 24 50 40 50"/><path class="cls-3" d="M63,4V42H1V4A2.006,2.006,0,0,1,3,2H61A2.006,2.006,0,0,1,63,4Z"/><path class="cls-4" d="M63,42v6a2.006,2.006,0,0,1-2,2H3a2.006,2.006,0,0,1-2-2V42Z"/><path class="cls-5" d="M61,2H3A2.006,2.006,0,0,0,1,4V18.844A26.743,26.743,0,0,0,9.2,20c7.6,0,7.6-2,15.2-2s7.6,2,15.2,2,7.6-2,15.2-2A26.787,26.787,0,0,1,63,19.157V4A2.006,2.006,0,0,0,61,2Z"/><path class="cls-6" d="M61,2H3A2.006,2.006,0,0,0,1,4v7.844A26.743,26.743,0,0,0,9.2,13c7.6,0,7.6-2,15.2-2s7.6,2,15.2,2,7.6-2,15.2-2A26.787,26.787,0,0,1,63,12.157V4A2.006,2.006,0,0,0,61,2Z"/><path class="cls-7" d="M24,50l-1.832,3.3A25.289,25.289,0,0,0,28.6,54c6.6,0,7.475-1.507,12.57-1.9L40,50Z"/><rect class="cls-8" x="42" y="20" width="20" height="22" rx="0.99" ry="0.99"/><path class="cls-9" d="M1,42v6a2.006,2.006,0,0,0,2,2H61a2.006,2.006,0,0,0,2-2V4a2.006,2.006,0,0,0-2-2H3A2.006,2.006,0,0,0,1,4Z"/><polyline class="cls-9" points="24 50 19 59 19 62 45 62 45 59 40 50"/><line class="cls-9" x1="19" y1="59" x2="45" y2="59"/><line class="cls-9" x1="16" y1="62" x2="19" y2="62"/><line class="cls-9" x1="45" y1="62" x2="48" y2="62"/><line class="cls-9" x1="1" y1="42" x2="63" y2="42"/></g><rect class="cls-8" x="7" y="22" width="15" height="15" rx="0.99" ry="0.99"/><rect class="cls-8" x="19" y="8" width="17" height="15" rx="0.99" ry="0.99"/><g id="_Group_2" data-name="&lt;Group&gt;"><rect class="cls-10" x="39" y="24" width="20" height="14"/><rect class="cls-11" x="39" y="16" width="20" height="8"/><polygon class="cls-12" points="32.5 7 19 20 19 6 33 6 33 7 32.5 7"/><polygon class="cls-10" points="33 6 33 20 18.481 20 32.481 6 33 6"/><polygon class="cls-12" points="19 20 19 34 4.481 34 18.481 20 19 20"/><polygon class="cls-10" points="19 20 19 21 18.5 21 5 34 5 20 19 20"/><polygon class="cls-9" points="19 20.5 19 34 5 34 5 20 19 20 19 20.5"/><line class="cls-9" x1="5" y1="34" x2="18.5" y2="20.5"/><polygon class="cls-9" points="33 6.5 33 20 19 20 19 6 33 6 33 6.5"/><line class="cls-9" x1="19" y1="20" x2="32.5" y2="6.5"/><polygon class="cls-9" points="59 24 59 38 39 38 39 24 39 16 59 16 59 24"/><line class="cls-9" x1="39" y1="24" x2="59" y2="24"/></g><polyline class="cls-9" points="30 32 33 35 30 38"/><line class="cls-9" x1="33" y1="35" x2="24" y2="35"/><polyline class="cls-9" points="30 23 33 26 30 29"/><line class="cls-9" x1="33" y1="26" x2="24" y2="26"/><line class="cls-13" x1="42" y1="20" x2="44" y2="20"/><line class="cls-13" x1="46" y1="20" x2="48" y2="20"/><rect class="cls-4" x="42" y="27" width="14" height="8"/></svg>