<?xml version="1.0" encoding="UTF-8" standalone="no"?>
<!DOCTYPE svg PUBLIC "-//W3C//DTD SVG 1.1//EN" "http://www.w3.org/Graphics/SVG/1.1/DTD/svg11.dtd">
<svg width="100%" height="100%" viewBox="0 0 800 600" version="1.1" xmlns="http://www.w3.org/2000/svg" xmlns:xlink="http://www.w3.org/1999/xlink" xml:space="preserve" xmlns:serif="http://www.serif.com/" style="fill-rule:evenodd;clip-rule:evenodd;stroke-linecap:round;stroke-linejoin:round;stroke-miterlimit:1.5;">
    <rect x="279.598" y="143.188" width="105.635" height="105.947" style="fill:none;stroke:rgb(1,0,0);stroke-width:1px;"/>
    <g transform="matrix(1,0,0,9.52064,0,-505.968)">
        <rect x="0" y="59.381" width="141.646" height="38.473" style="fill:rgb(235,235,235);fill-opacity:0.654902;stroke:black;stroke-width:0.15px;"/>
    </g>
    <g transform="matrix(1.04064,0,0,0.607407,-4.34403,53.9021)">
        <rect x="8.422" y="72.027" width="122.822" height="18.222" style="fill:rgb(89,89,89);fill-opacity:0.654902;"/>
    </g>
    <g transform="matrix(0.86007,0,0,0.607407,147.855,213.911)">
        <rect x="8.422" y="72.027" width="122.822" height="18.222" style="fill:rgb(89,89,89);fill-opacity:0.654902;"/>
    </g>
    <g transform="matrix(0.86007,0,0,0.607407,272.354,213.911)">
        <rect x="8.422" y="72.027" width="122.822" height="18.222" style="fill:rgb(89,89,89);fill-opacity:0.654902;"/>
    </g>
    <g transform="matrix(0.86007,0,0,0.607407,392.757,213.911)">
        <rect x="8.422" y="72.027" width="122.822" height="18.222" style="fill:rgb(89,89,89);fill-opacity:0.654902;"/>
    </g>
    <g transform="matrix(0.86007,0,0,0.607407,520.783,213.911)">
        <rect x="8.422" y="72.027" width="122.822" height="18.222" style="fill:rgb(89,89,89);fill-opacity:0.654902;"/>
    </g>
    <g transform="matrix(0.86007,0,0,0.607407,641.185,213.911)">
        <rect x="8.422" y="72.027" width="122.822" height="18.222" style="fill:rgb(89,89,89);fill-opacity:0.654902;"/>
    </g>
    <g transform="matrix(0.86007,0,0,0.607407,147.855,359.539)">
        <rect x="8.422" y="72.027" width="122.822" height="18.222" style="fill:rgb(89,89,89);fill-opacity:0.654902;"/>
    </g>
    <g transform="matrix(0.86007,0,0,0.607407,272.354,359.539)">
        <rect x="8.422" y="72.027" width="122.822" height="18.222" style="fill:rgb(89,89,89);fill-opacity:0.654902;"/>
    </g>
    <g transform="matrix(0.86007,0,0,0.607407,392.757,359.539)">
        <rect x="8.422" y="72.027" width="122.822" height="18.222" style="fill:rgb(89,89,89);fill-opacity:0.654902;"/>
    </g>
    <g transform="matrix(0.86007,0,0,0.607407,520.783,359.539)">
        <rect x="8.422" y="72.027" width="122.822" height="18.222" style="fill:rgb(89,89,89);fill-opacity:0.654902;"/>
    </g>
    <g transform="matrix(0.86007,0,0,0.607407,641.185,359.539)">
        <rect x="8.422" y="72.027" width="122.822" height="18.222" style="fill:rgb(89,89,89);fill-opacity:0.654902;"/>
    </g>
    <g transform="matrix(1.04064,0,0,0.607407,-4.34403,71.0684)">
        <rect x="8.422" y="72.027" width="122.822" height="18.222" style="fill:rgb(89,89,89);fill-opacity:0.654902;"/>
    </g>
    <g transform="matrix(1.04064,0,0,0.607407,-4.34403,88.3699)">
        <rect x="8.422" y="72.027" width="122.822" height="18.222" style="fill:rgb(89,89,89);fill-opacity:0.654902;"/>
    </g>
    <g transform="matrix(1.04064,0,0,0.607407,-4.34403,106.391)">
        <rect x="8.422" y="72.027" width="122.822" height="18.222" style="fill:rgb(89,89,89);fill-opacity:0.654902;"/>
    </g>
    <g transform="matrix(1.04064,0,0,0.607407,-1.848,0.831951)">
        <rect x="8.422" y="72.027" width="122.822" height="18.222" style="fill:rgb(89,89,89);fill-opacity:0.654902;"/>
    </g>
    <g transform="matrix(5.64788,0,0,0.679045,-1.32431e-12,-7.06574)">
        <rect x="0" y="59.381" width="141.646" height="38.473" style="fill:rgb(235,235,235);fill-opacity:0.654902;stroke:black;stroke-width:0.25px;"/>
    </g>
    <rect x="0" y="0" width="82.336" height="33.257" style="fill:rgb(238,238,238);fill-opacity:0.717647;stroke:rgb(1,0,0);stroke-width:1px;"/>
    <g transform="matrix(1.04064,0,0,1,-4.34403,-3.77982)">
        <rect x="8.422" y="72.027" width="122.822" height="18.222" style="fill:rgb(89,89,89);fill-opacity:0.654902;"/>
    </g>
    <g transform="matrix(1.04064,0,0,1,146.334,36.6926)">
        <rect x="8.422" y="72.027" width="122.822" height="18.222" style="fill:rgb(89,89,89);fill-opacity:0.654902;"/>
    </g>
    <g transform="matrix(1.04064,0,0,1,-4.34403,-3.77982)">
        <rect x="8.422" y="72.027" width="122.822" height="18.222" style="fill:rgb(89,89,89);fill-opacity:0.654902;"/>
    </g>
    <g>
        <rect x="279.598" y="143.188" width="105.635" height="105.947" style="fill:rgb(238,238,238);fill-opacity:0.717647;stroke:rgb(3,0,0);stroke-width:1px;"/>
        <path d="M279.598,249.135L385.233,143.188L385.233,249.135L279.598,143.188" style="fill:none;stroke:rgb(1,0,0);stroke-width:1px;"/>
    </g>
    <g transform="matrix(1,0,0,1,120.402,0)">
        <rect x="279.598" y="143.188" width="105.635" height="105.947" style="fill:rgb(238,238,238);fill-opacity:0.717647;stroke:black;stroke-width:1px;"/>
        <path d="M279.598,249.135L385.233,143.188L385.233,249.135L279.598,143.188" style="fill:none;stroke:black;stroke-width:1px;"/>
    </g>
    <g transform="matrix(1,0,0,1,248.429,0)">
        <rect x="279.598" y="143.188" width="105.635" height="105.947" style="fill:rgb(238,238,238);fill-opacity:0.717647;stroke:rgb(3,0,0);stroke-width:1px;"/>
        <path d="M279.598,249.135L385.233,143.188L385.233,249.135L279.598,143.188" style="fill:none;stroke:rgb(1,0,0);stroke-width:1px;"/>
    </g>
    <g transform="matrix(1,0,0,1,368.831,0)">
        <rect x="279.598" y="143.188" width="105.635" height="105.947" style="fill:rgb(238,238,238);fill-opacity:0.717647;stroke:black;stroke-width:1px;"/>
        <path d="M279.598,249.135L385.233,143.188L385.233,249.135L279.598,143.188" style="fill:none;stroke:black;stroke-width:1px;"/>
    </g>
    <g transform="matrix(1,0,0,1,-124.499,0)">
        <rect x="279.598" y="143.188" width="105.635" height="105.947" style="fill:rgb(238,238,238);fill-opacity:0.717647;stroke:rgb(7,0,0);stroke-width:1px;"/>
        <path d="M279.598,249.135L385.233,143.188L385.233,249.135L279.598,143.188" style="fill:none;stroke:rgb(7,0,0);stroke-width:1px;"/>
    </g>
    <g transform="matrix(1,0,0,1,0,143.769)">
        <rect x="279.598" y="143.188" width="105.635" height="105.947" style="fill:rgb(238,238,238);fill-opacity:0.717647;stroke:rgb(3,0,0);stroke-width:1px;"/>
        <path d="M279.598,249.135L385.233,143.188L385.233,249.135L279.598,143.188" style="fill:none;stroke:rgb(1,0,0);stroke-width:1px;"/>
    </g>
    <g transform="matrix(1,0,0,1,120.402,143.769)">
        <rect x="279.598" y="143.188" width="105.635" height="105.947" style="fill:rgb(238,238,238);fill-opacity:0.717647;stroke:black;stroke-width:1px;"/>
        <path d="M279.598,249.135L385.233,143.188L385.233,249.135L279.598,143.188" style="fill:none;stroke:black;stroke-width:1px;"/>
    </g>
    <g transform="matrix(1,0,0,1,248.429,143.769)">
        <rect x="279.598" y="143.188" width="105.635" height="105.947" style="fill:rgb(238,238,238);fill-opacity:0.717647;stroke:rgb(3,0,0);stroke-width:1px;"/>
        <path d="M279.598,249.135L385.233,143.188L385.233,249.135L279.598,143.188" style="fill:none;stroke:rgb(1,0,0);stroke-width:1px;"/>
    </g>
    <g transform="matrix(1,0,0,1,368.831,143.769)">
        <rect x="279.598" y="143.188" width="105.635" height="105.947" style="fill:rgb(238,238,238);fill-opacity:0.717647;stroke:black;stroke-width:1px;"/>
        <path d="M279.598,249.135L385.233,143.188L385.233,249.135L279.598,143.188" style="fill:none;stroke:black;stroke-width:1px;"/>
    </g>
    <g transform="matrix(1,0,0,1,-124.499,143.769)">
        <rect x="279.598" y="143.188" width="105.635" height="105.947" style="fill:rgb(238,238,238);fill-opacity:0.717647;stroke:rgb(7,0,0);stroke-width:1px;"/>
        <path d="M279.598,249.135L385.233,143.188L385.233,249.135L279.598,143.188" style="fill:none;stroke:rgb(7,0,0);stroke-width:1px;"/>
    </g>
    <g transform="matrix(1,0,0,1,-4.64893,-10.7671)">
        <text x="44.581px" y="319.357px" style="font-family:'ArialMT', 'Arial', sans-serif;font-size:12px;">Navigation</text>
    </g>
    <g transform="matrix(1,0,0,1,-32.1294,-299.696)">
        <text x="44.581px" y="319.357px" style="font-family:'ArialMT', 'Arial', sans-serif;font-size:12px;">Logo</text>
    </g>
    <g transform="matrix(1,0,0,1,570.207,-297.317)">
        <text x="44.581px" y="319.357px" style="font-family:'ArialMT', 'Arial', sans-serif;font-size:12px;">Search</text>
    </g>
    <g transform="matrix(1,0,0,1,379.842,-235.413)">
        <text x="44.581px" y="319.357px" style="font-family:'ArialMT', 'Arial', sans-serif;font-size:12px;">Content</text>
    </g>
    <g transform="matrix(1,0,0,1,278.997,-298.434)">
        <text x="44.581px" y="319.357px" style="font-family:'ArialMT', 'Arial', sans-serif;font-size:12px;">Header</text>
    </g>
    <g transform="matrix(1,0,0,1,524.4,106.161)">
        <text x="44.581px" y="319.357px" style="font-family:'ArialMT', 'Arial', sans-serif;font-size:12px;">CT<tspan x="59.687px " y="319.357px ">A</tspan></text>
    </g>
</svg>
